<?xml version="1.0" encoding="UTF-8" standalone="no"?>
<!-- Created with Inkscape (http://www.inkscape.org/) -->

<svg
   width="2428.1421"
   height="2392.7009"
   viewBox="0 0 2428.1421 2392.7012"
   id="svg2"
   version="1.1"
   inkscape:version="1.4 (86a8ad7, 2024-10-11)"
   sodipodi:docname="opus.svg"
   inkscape:export-filename="opus.png"
   inkscape:export-xdpi="90"
   inkscape:export-ydpi="90"
   xml:space="preserve"
   xmlns:inkscape="http://www.inkscape.org/namespaces/inkscape"
   xmlns:sodipodi="http://sodipodi.sourceforge.net/DTD/sodipodi-0.dtd"
   xmlns="http://www.w3.org/2000/svg"
   xmlns:svg="http://www.w3.org/2000/svg"
   xmlns:rdf="http://www.w3.org/1999/02/22-rdf-syntax-ns#"
   xmlns:cc="http://creativecommons.org/ns#"
   xmlns:dc="http://purl.org/dc/elements/1.1/"><defs
     id="defs4"><marker
       inkscape:stockid="Arrow1Lstart"
       orient="auto"
       refY="0"
       refX="0"
       id="Arrow1Lstart"
       style="overflow:visible"
       inkscape:isstock="true"><path
         id="path4170"
         d="M 0,0 5,-5 -12.5,0 5,5 Z"
         style="fill:#000000;fill-opacity:1;fill-rule:evenodd;stroke:#000000;stroke-width:1pt;stroke-opacity:1"
         transform="matrix(0.8,0,0,0.8,10,0)"
         inkscape:connector-curvature="0" /></marker></defs><sodipodi:namedview
     id="base"
     pagecolor="#ffffff"
     bordercolor="#666666"
     borderopacity="1.0"
     inkscape:pageopacity="0.0"
     inkscape:pageshadow="2"
     inkscape:zoom="0.35"
     inkscape:cx="1475.7143"
     inkscape:cy="1910"
     inkscape:document-units="px"
     inkscape:current-layer="layer1"
     showgrid="false"
     units="px"
     inkscape:window-width="3840"
     inkscape:window-height="2126"
     inkscape:window-x="-11"
     inkscape:window-y="-11"
     inkscape:window-maximized="1"
     fit-margin-top="100"
     fit-margin-left="150"
     fit-margin-right="150"
     fit-margin-bottom="100"
     inkscape:showpageshadow="2"
     inkscape:pagecheckerboard="0"
     inkscape:deskcolor="#d1d1d1"><inkscape:grid
       type="xygrid"
       id="grid4149"
       originx="1331.5497"
       originy="-720.78491"
       spacingy="1"
       spacingx="1"
       units="px"
       visible="false" /></sodipodi:namedview><metadata
     id="metadata7"><rdf:RDF><cc:Work
         rdf:about=""><dc:format>image/svg+xml</dc:format><dc:type
           rdf:resource="http://purl.org/dc/dcmitype/StillImage" /></cc:Work></rdf:RDF></metadata><g
     inkscape:label="Calque 1"
     inkscape:groupmode="layer"
     id="layer1"
     transform="translate(1331.5498,935.0012)"><text
       xml:space="preserve"
       style="font-style:normal;font-weight:normal;font-size:10.6274px;line-height:0%;font-family:sans-serif;letter-spacing:0px;word-spacing:0px;fill:#e4317a;fill-opacity:1;stroke:none;stroke-width:0.885617px;stroke-linecap:butt;stroke-linejoin:miter;stroke-opacity:1"
       x="-1269.5771"
       y="1357.6996"
       id="text4177"><tspan
         sodipodi:role="line"
         id="tspan4179"
         x="-1269.5771"
         y="1357.6996"
         style="font-style:normal;font-variant:normal;font-weight:500;font-stretch:normal;font-size:704.217px;line-height:1.25;font-family:Orbitron;-inkscape-font-specification:'Orbitron Medium';fill:#e4317a;fill-opacity:1;stroke-width:0.885617px">OPUS</tspan></text><g
       id="g1"
       transform="translate(88.919419,1351.4286)"><path
         d="m 267.75321,-1803.2012 110.46,-110.46 -106.70286,-105.9514 -109.70857,110.46 a 601.14286,601.14286 0 0 0 -293.05714,-121.7315 v -155.5457 h -150.28571 v 155.5457 a 601.14286,601.14286 0 0 0 -293.05715,121.7315 l -109.70857,-110.46 -106.70285,106.7028 110.46,109.7086 a 601.14286,601.14286 0 0 0 -121.73143,293.0571 h -155.54572 v 150.2857 h 155.54572 a 601.14286,601.14286 0 0 0 121.73143,293.0572 l -110.46,109.70855 105.95142,105.95143 110.46,-109.70857 a 601.14286,601.14286 0 0 0 293.05715,121.73143 v 155.54571 h 150.28571 v -155.54571 a 601.14286,601.14286 0 0 0 293.05714,-121.73143 l 110.46,110.46 105.95143,-105.95143 -110.46,-110.45998 a 601.14286,601.14286 0 0 0 121.73143,-293.0572 h 155.54571 v -150.2857 H 389.48464 a 601.14286,601.14286 0 0 0 -121.73143,-293.0571 z m -474.15143,819.05713 a 450.85714,450.85714 0 1 1 450.85715,-450.85713 450.85714,450.85714 0 0 1 -450.85715,450.85713 z"
         id="path1"
         style="fill:#0f1573;fill-opacity:1;stroke-width:75.1429" /><polygon
         points="16,11 12,11 13.8,8.6 12.2,7.4 8,13 12,13 10.2,15.4 11.8,16.6 "
         id="polygon1"
         transform="matrix(75.142857,0,0,75.142857,-1108.1125,-2336.7155)"
         style="fill:#e4317a;fill-opacity:1" /></g></g></svg>
